<?xml version="1.0" standalone="no"?>
<!DOCTYPE svg PUBLIC "-//W3C//DTD SVG 20010904//EN"
 "http://www.w3.org/TR/2001/REC-SVG-20010904/DTD/svg10.dtd">
<svg version="1.0" xmlns="http://www.w3.org/2000/svg"
 width="30.000000pt" height="30.000000pt" viewBox="0 0 30.000000 30.000000"
 preserveAspectRatio="xMidYMid meet">

<g transform="translate(0.000000,30.000000) scale(0.100000,-0.100000)"
fill="#000000" stroke="none">
<path d="M80 260 c-21 -27 -40 -40 -56 -40 -26 0 -31 -17 -15 -48 6 -9 13 -34
16 -54 l6 -38 52 0 c48 0 53 3 69 31 10 17 18 39 18 50 0 10 5 19 10 19 6 0
10 -6 10 -14 0 -15 35 -11 58 7 22 17 14 47 -13 47 -16 0 -34 13 -56 40 -18
22 -40 40 -50 40 -9 0 -32 -18 -49 -40z m77 -2 c34 -31 29 -38 -27 -38 -27 0
-50 3 -50 7 0 8 41 53 49 53 2 0 15 -10 28 -22z m-67 -113 c0 -19 -4 -35 -10
-35 -5 0 -10 16 -10 35 0 19 5 35 10 35 6 0 10 -16 10 -35z m50 0 c0 -19 -4
-35 -10 -35 -5 0 -10 16 -10 35 0 19 5 35 10 35 6 0 10 -16 10 -35z"/>
<path d="M182 117 c-28 -30 -28 -68 1 -95 30 -28 68 -28 95 1 28 30 28 68 -1
95 -30 28 -68 28 -95 -1z m88 -25 c0 -5 -11 -19 -25 -32 -20 -19 -27 -21 -40
-10 -21 17 -19 33 4 25 10 -3 24 1 31 10 13 16 30 20 30 7z"/>
</g>
</svg>
