<?xml version="1.0" standalone="no"?>
<!DOCTYPE svg PUBLIC "-//W3C//DTD SVG 20010904//EN"
 "http://www.w3.org/TR/2001/REC-SVG-20010904/DTD/svg10.dtd">
<svg version="1.0" xmlns="http://www.w3.org/2000/svg"
 width="50.000000pt" height="50.000000pt" viewBox="0 0 50.000000 50.000000"
 preserveAspectRatio="xMidYMid meet">

<g transform="translate(0.000000,50.000000) scale(0.100000,-0.100000)"
fill="#000000" stroke="none">
<path d="M272 393 c-31 -46 -33 -51 -17 -49 8 1 18 6 22 11 4 4 2 5 -4 1 -19
-10 -16 2 8 35 11 16 18 29 15 29 -2 0 -13 -12 -24 -27z"/>
<path d="M445 354 l-40 -36 45 33 c25 18 47 34 49 36 2 2 0 3 -5 3 -5 0 -27
-16 -49 -36z"/>
<path d="M471 327 c-6 -15 -18 -41 -27 -58 -8 -17 -11 -28 -5 -24 17 10 53 85
48 98 -3 7 -10 0 -16 -16z"/>
<path d="M217 306 c-6 -12 -10 -27 -8 -35 1 -7 -2 -10 -8 -7 -5 4 -12 2 -15
-3 -4 -5 -2 -12 3 -15 13 -8 49 45 43 63 -3 8 0 11 6 7 6 -3 13 -3 16 2 3 5
-2 9 -10 9 -8 0 -20 -10 -27 -21z"/>
<path d="M379 303 c-13 -16 -12 -17 4 -4 9 7 17 15 17 17 0 8 -8 3 -21 -13z"/>
<path d="M165 230 c-3 -5 -3 -10 1 -10 4 0 0 -6 -10 -13 -15 -11 -15 -14 -4
-14 19 0 41 34 28 42 -5 3 -11 1 -15 -5z"/>
<path d="M430 195 c-12 -19 -26 -33 -31 -30 -5 4 -6 -2 -2 -11 5 -13 3 -15 -7
-9 -8 5 -11 4 -6 -3 3 -5 2 -12 -2 -14 -11 -4 -73 -120 -68 -125 2 -3 17 17
32 44 15 26 43 73 64 103 46 68 52 80 46 80 -2 0 -14 -16 -26 -35z"/>
<path d="M190 135 c-29 -30 -57 -52 -61 -50 -4 3 -9 -5 -12 -17 -4 -14 17 1
63 47 39 38 70 71 70 72 0 7 -9 -1 -60 -52z"/>
<path d="M120 159 c-7 -11 -10 -23 -7 -25 2 -2 9 7 15 21 14 30 7 33 -8 4z"/>
<path d="M394 68 c-25 -29 -26 -30 -3 -10 19 17 28 20 31 10 3 -7 7 -3 10 10
8 31 -3 28 -38 -10z"/>
<path d="M477 84 c-3 -3 -3 -13 0 -22 4 -9 2 -13 -5 -9 -6 4 -21 -7 -33 -25
-13 -17 -16 -27 -8 -22 7 5 18 9 22 9 13 0 49 63 39 69 -5 3 -12 3 -15 0z
m-14 -49 c-3 -9 -8 -14 -10 -11 -3 3 -2 9 2 15 9 16 15 13 8 -4z"/>
<path d="M405 39 c-4 -6 -5 -12 -2 -15 2 -3 7 2 10 11 7 17 1 20 -8 4z"/>
</g>
</svg>
