<?xml version="1.0" standalone="no"?>
<!DOCTYPE svg PUBLIC "-//W3C//DTD SVG 20010904//EN"
 "http://www.w3.org/TR/2001/REC-SVG-20010904/DTD/svg10.dtd">
<svg version="1.0" xmlns="http://www.w3.org/2000/svg"
 width="50.000000pt" height="50.000000pt" viewBox="0 0 50.000000 50.000000"
 preserveAspectRatio="xMidYMid meet">

<g transform="translate(0.000000,50.000000) scale(0.100000,-0.100000)"
fill="#000000" stroke="none">
<path d="M440 424 l0 -58 -32 31 c-63 59 -126 79 -203 63 -180 -37 -239 -267
-99 -389 47 -42 77 -53 145 -53 127 0 219 95 219 228 0 62 -5 68 -13 16 -3
-19 -13 -42 -23 -53 -9 -11 -14 -22 -11 -26 12 -11 -35 -53 -60 -53 -17 0 -23
6 -23 23 0 25 42 72 53 60 4 -3 16 2 27 12 15 14 20 31 20 72 0 34 4 52 10 48
6 -4 10 18 10 59 0 36 -4 68 -10 71 -6 4 -10 -16 -10 -51z m-155 -108 c66 -28
64 -125 -3 -153 -46 -19 -88 -3 -109 43 -14 27 -14 37 -3 64 11 27 50 58 73
60 4 0 23 -6 42 -14z"/>
<path d="M205 285 c-32 -31 -32 -59 1 -91 27 -28 64 -27 93 1 23 22 18 75 -8
97 -31 25 -57 23 -86 -7z m70 -45 c0 -18 -6 -26 -23 -28 -13 -2 -25 3 -28 12
-10 26 4 48 28 44 17 -2 23 -10 23 -28z"/>
<path d="M364 179 c-8 -14 11 -33 25 -25 6 4 11 14 11 22 0 16 -26 19 -36 3z"/>
</g>
</svg>
