<?xml version="1.0" standalone="no"?>
<!DOCTYPE svg PUBLIC "-//W3C//DTD SVG 20010904//EN"
 "http://www.w3.org/TR/2001/REC-SVG-20010904/DTD/svg10.dtd">
<svg version="1.0" xmlns="http://www.w3.org/2000/svg"
 width="50.000000pt" height="50.000000pt" viewBox="0 0 50.000000 50.000000"
 preserveAspectRatio="xMidYMid meet">

<g transform="translate(0.000000,50.000000) scale(0.100000,-0.100000)"
fill="#000000" stroke="none">
<path d="M313 455 c-12 -8 -20 -23 -19 -32 2 -10 1 -12 -1 -5 -5 13 -16 16
-26 5 -4 -3 -1 -13 6 -22 10 -14 10 -14 -4 -4 -13 10 -31 1 -112 -59 -54 -39
-95 -74 -92 -77 4 -3 10 1 15 9 5 8 13 11 17 6 4 -5 2 -11 -5 -13 -6 -3 -9 -9
-6 -15 4 -5 -4 -5 -16 2 -19 10 -25 9 -41 -6 -17 -18 -16 -22 58 -119 42 -55
73 -92 70 -82 -4 9 -2 17 2 17 5 0 11 -4 13 -9 3 -9 259 176 297 213 11 12 1
29 -59 110 -40 53 -73 96 -74 96 -1 0 -11 -7 -23 -15z m27 -5 c0 -5 -5 -10
-11 -10 -5 0 -7 5 -4 10 3 6 8 10 11 10 2 0 4 -4 4 -10z m-17 -82 c-4 -7 -8
-16 -8 -20 0 -3 -4 -10 -9 -15 -5 -5 -6 -2 -1 6 5 9 3 12 -6 9 -8 -3 -13 -10
-12 -16 1 -5 -5 -16 -14 -24 -14 -11 -16 -11 -9 1 6 9 4 12 -5 9 -8 -3 -14
-10 -14 -16 0 -6 -6 -17 -14 -24 -12 -11 -12 -10 -5 2 5 8 9 19 9 23 0 7 84
76 93 77 2 0 0 -6 -5 -12z m-43 -2 c0 -2 -8 -10 -17 -17 -16 -13 -17 -12 -4 4
13 16 21 21 21 13z m111 -13 c13 -16 12 -17 -3 -4 -17 13 -22 21 -14 21 2 0
10 -8 17 -17z m-151 -7 c0 -7 -7 -19 -15 -26 -8 -7 -15 -9 -15 -5 0 4 -8 -2
-17 -14 -14 -16 -22 -18 -33 -11 -13 9 -10 14 15 35 22 18 32 21 42 13 10 -8
12 -7 7 6 -3 9 -1 16 5 16 6 0 11 -6 11 -14z m90 -20 c0 -2 -8 -10 -17 -17
-16 -13 -17 -12 -4 4 13 16 21 21 21 13z m91 -13 c13 -16 12 -17 -3 -4 -17 13
-22 21 -14 21 2 0 10 -8 17 -17z m-210 -26 c-6 -8 -9 -16 -6 -19 3 -3 -3 -11
-12 -19 -16 -13 -17 -12 -4 4 7 9 10 17 6 17 -4 0 -2 7 5 15 7 8 15 15 17 15
3 0 0 -6 -6 -13z m79 9 c0 -2 -8 -10 -17 -17 -16 -13 -17 -12 -4 4 13 16 21
21 21 13z m64 -28 c9 -14 6 -22 -13 -40 -13 -13 -20 -17 -16 -9 5 9 3 12 -6 9
-8 -3 -14 -10 -14 -16 0 -6 -5 -16 -12 -23 -9 -9 -11 -8 -10 2 2 8 6 20 11 27
11 19 -1 27 -18 13 -12 -10 -14 -9 -12 4 1 8 8 21 16 28 10 9 11 9 6 0 -4 -7
-3 -13 2 -13 5 0 12 9 15 21 7 24 34 23 51 -3z m116 12 c0 -5 -5 -10 -11 -10
-5 0 -7 5 -4 10 3 6 8 10 11 10 2 0 4 -4 4 -10z m-310 -4 c0 -2 -8 -10 -17
-17 -16 -13 -17 -12 -4 4 13 16 21 21 21 13z m11 -19 c-6 -8 -9 -16 -6 -19 3
-3 -3 -11 -12 -19 -16 -13 -17 -12 -4 4 7 9 10 17 6 17 -4 0 -2 7 5 15 7 8 15
15 17 15 3 0 0 -6 -6 -13z m79 9 c0 -2 -8 -10 -17 -17 -16 -13 -17 -12 -4 4
13 16 21 21 21 13z m170 -10 c0 -2 -8 -10 -17 -17 -16 -13 -17 -12 -4 4 13 16
21 21 21 13z m-380 -26 c0 -5 -5 -10 -11 -10 -5 0 -7 5 -4 10 3 6 8 10 11 10
2 0 4 -4 4 -10z m100 6 c0 -2 -8 -10 -17 -17 -16 -13 -17 -12 -4 4 13 16 21
21 21 13z m70 0 c0 -2 -8 -10 -17 -17 -16 -13 -17 -12 -4 4 13 16 21 21 21 13z
m34 -22 c-4 -20 -1 -25 10 -21 8 3 13 0 12 -9 -3 -23 -20 -32 -41 -24 -17 7
-17 9 -2 9 9 1 17 6 17 12 0 5 -4 8 -9 4 -5 -3 -12 -1 -16 5 -4 6 -11 7 -17 4
-7 -4 -8 -2 -4 5 6 9 11 9 24 -1 13 -11 15 -11 10 3 -4 9 -1 22 5 28 15 15 16
14 11 -15z m136 12 c0 -2 -8 -10 -17 -17 -16 -13 -17 -12 -4 4 13 16 21 21 21
13z m-286 -31 c-6 -15 57 -110 79 -118 9 -4 9 -6 0 -6 -19 -1 -96 106 -89 124
3 8 8 15 10 15 3 0 3 -7 0 -15z m246 1 c0 -2 -8 -10 -17 -17 -16 -13 -17 -12
-4 4 13 16 21 21 21 13z m-40 -30 c0 -2 -8 -10 -17 -17 -16 -13 -17 -12 -4 4
13 16 21 21 21 13z m-40 -30 c0 -2 -8 -10 -17 -17 -16 -13 -17 -12 -4 4 13 16
21 21 21 13z m-40 -30 c0 -2 -8 -10 -17 -17 -16 -13 -17 -12 -4 4 13 16 21 21
21 13z"/>
<path d="M196 332 c-3 -5 1 -9 9 -9 8 0 12 4 9 9 -3 4 -7 8 -9 8 -2 0 -6 -4
-9 -8z"/>
<path d="M166 311 c-4 -5 -2 -12 3 -15 5 -4 12 -2 15 3 4 5 2 12 -3 15 -5 4
-12 2 -15 -3z"/>
<path d="M323 269 c9 -5 17 -15 17 -22 0 -7 -4 -6 -10 3 -5 8 -12 11 -17 7 -4
-5 -1 -12 7 -17 9 -5 19 -5 24 0 13 13 -1 40 -21 40 -17 -1 -17 -1 0 -11z"/>
</g>
</svg>
