<?xml version="1.0" encoding="UTF-8"?>
<!DOCTYPE svg PUBLIC "-//W3C//DTD SVG 1.1//EN" "http://www.w3.org/Graphics/SVG/1.1/DTD/svg11.dtd">
<svg xmlns="http://www.w3.org/2000/svg" version="1.1" width="50px" height="50px" style="shape-rendering:geometricPrecision; text-rendering:geometricPrecision; image-rendering:optimizeQuality; fill-rule:evenodd; clip-rule:evenodd" xmlns:xlink="http://www.w3.org/1999/xlink">
<g><path style="opacity:1" fill="#fafafa" d="M -0.5,-0.5 C 16.1667,-0.5 32.8333,-0.5 49.5,-0.5C 49.5,16.1667 49.5,32.8333 49.5,49.5C 32.8333,49.5 16.1667,49.5 -0.5,49.5C -0.5,32.8333 -0.5,16.1667 -0.5,-0.5 Z"/></g>
<g><path style="opacity:1" fill="#191919" d="M 19.5,1.5 C 42.3387,2.1984 50.8387,13.5317 45,35.5C 37.0136,46.7906 26.5136,49.9573 13.5,45C 1.46547,36.5644 -1.36787,25.731 5,12.5C 8.85677,7.46777 13.6901,3.8011 19.5,1.5 Z"/></g>
<g><path style="opacity:1" fill="#f8f8f8" d="M 18.5,4.5 C 38.8372,3.99803 47.0039,13.6647 43,33.5C 35.1322,45.0085 24.9655,47.5085 12.5,41C 3.68074,32.6969 2.18074,23.1969 8,12.5C 10.94,8.96319 14.44,6.29652 18.5,4.5 Z"/></g>
<g><path style="opacity:1" fill="#888888" d="M 17.5,10.5 C 20.5162,17.1869 19.8495,17.8536 15.5,12.5C 15.8333,11.5 16.5,10.8333 17.5,10.5 Z"/></g>
<g><path style="opacity:1" fill="#151515" d="M 15.5,12.5 C 19.8495,17.8536 20.5162,17.1869 17.5,10.5C 18.8583,9.37437 20.1916,9.37437 21.5,10.5C 22.5401,12.5229 23.5401,14.5229 24.5,16.5C 24.1322,17.91 23.2989,18.91 22,19.5C 21.3333,18.1667 20.6667,18.1667 20,19.5C 19.1593,23.1202 19.826,26.4536 22,29.5C 22.956,30.8941 24.2894,31.5607 26,31.5C 27.8546,30.756 29.5212,29.756 31,28.5C 33.07,30.9628 34.9033,33.6295 36.5,36.5C 35.1804,38.2701 33.6804,38.6034 32,37.5C 31.5917,39.4096 30.4251,40.4096 28.5,40.5C 20.4587,35.8023 15.292,28.8023 13,19.5C 11.9126,16.3861 12.746,14.0528 15.5,12.5 Z"/></g>
</svg>
