<?xml version="1.0" encoding="UTF-8"?>
<!DOCTYPE svg PUBLIC "-//W3C//DTD SVG 1.1//EN" "http://www.w3.org/Graphics/SVG/1.1/DTD/svg11.dtd">
<svg xmlns="http://www.w3.org/2000/svg" version="1.1" width="50px" height="50px" style="shape-rendering:geometricPrecision; text-rendering:geometricPrecision; image-rendering:optimizeQuality; fill-rule:evenodd; clip-rule:evenodd" xmlns:xlink="http://www.w3.org/1999/xlink">
<g><path style="opacity:1" fill="#f9f9f9" d="M -0.5,-0.5 C 16.1667,-0.5 32.8333,-0.5 49.5,-0.5C 49.5,4.16667 49.5,8.83333 49.5,13.5C 45.9911,6.72728 40.3245,2.89395 32.5,2C 23.011,0.416179 14.011,1.74951 5.5,6C 2.87922,8.11411 0.879222,10.6141 -0.5,13.5C -0.5,8.83333 -0.5,4.16667 -0.5,-0.5 Z"/></g>
<g><path style="opacity:1" fill="#101010" d="M 49.5,13.5 C 49.5,15.1667 49.5,16.8333 49.5,18.5C 48.7109,18.7828 48.0442,19.2828 47.5,20C 32.1667,20.6667 16.8333,20.6667 1.5,20C 0.955796,19.2828 0.28913,18.7828 -0.5,18.5C -0.5,16.8333 -0.5,15.1667 -0.5,13.5C 0.879222,10.6141 2.87922,8.11411 5.5,6C 14.011,1.74951 23.011,0.416179 32.5,2C 40.3245,2.89395 45.9911,6.72728 49.5,13.5 Z"/></g>
<g><path style="opacity:1" fill="#f5f5f5" d="M 44.5,14.5 C 31.1667,15.8333 17.8333,15.8333 4.5,14.5C 5.59136,11.5722 7.59136,9.40552 10.5,8C 19.8192,4.70927 29.1525,4.70927 38.5,8C 41.4086,9.40552 43.4086,11.5722 44.5,14.5 Z"/></g>
<g><path style="opacity:1" fill="#808080" d="M 28.5,7.5 C 29.4972,7.47008 30.1639,7.97008 30.5,9C 29.6604,10.1712 28.8271,11.3379 28,12.5C 26.8333,11.3333 25.6667,10.1667 24.5,9C 25.549,8.50776 26.549,8.67443 27.5,9.5C 28.2975,9.04311 28.6309,8.37644 28.5,7.5 Z"/></g>
<g><path style="opacity:1" fill="#bbbbbb" d="M 4.5,14.5 C 17.8333,15.8333 31.1667,15.8333 44.5,14.5C 45.0431,14.56 45.3764,14.8933 45.5,15.5C 31.5,16.8333 17.5,16.8333 3.5,15.5C 3.62358,14.8933 3.95691,14.56 4.5,14.5 Z"/></g>
<g><path style="opacity:1" fill="#fdfdfd" d="M -0.5,18.5 C 0.28913,18.7828 0.955796,19.2828 1.5,20C 16.8333,20.6667 32.1667,20.6667 47.5,20C 48.0442,19.2828 48.7109,18.7828 49.5,18.5C 49.5,20.1667 49.5,21.8333 49.5,23.5C 32.8333,22.1667 16.1667,22.1667 -0.5,23.5C -0.5,21.8333 -0.5,20.1667 -0.5,18.5 Z"/></g>
<g><path style="opacity:1" fill="#040404" d="M 49.5,23.5 C 49.5,24.1667 49.5,24.8333 49.5,25.5C 43.6623,28.8582 37.6623,29.1915 31.5,26.5C 26.7668,29.0893 22.1001,29.0893 17.5,26.5C 11.3377,29.1915 5.33771,28.8582 -0.5,25.5C -0.5,24.8333 -0.5,24.1667 -0.5,23.5C 16.1667,22.1667 32.8333,22.1667 49.5,23.5 Z"/></g>
<g><path style="opacity:1" fill="#ededed" d="M -0.5,25.5 C 5.33771,28.8582 11.3377,29.1915 17.5,26.5C 22.1001,29.0893 26.7668,29.0893 31.5,26.5C 37.6623,29.1915 43.6623,28.8582 49.5,25.5C 49.5,27.8333 49.5,30.1667 49.5,32.5C 48.4226,31.9816 47.2559,31.6483 46,31.5C 43.4729,32.7589 40.8062,33.7589 38,34.5C 26.1657,30.6114 13.999,29.4447 1.5,31C 0.955796,31.7172 0.28913,32.2172 -0.5,32.5C -0.5,30.1667 -0.5,27.8333 -0.5,25.5 Z"/></g>
<g><path style="opacity:1" fill="#0f0f0f" d="M 49.5,32.5 C 49.5,36.1667 49.5,39.8333 49.5,43.5C 48.6836,45.1436 47.3502,46.3103 45.5,47C 31.5,47.6667 17.5,47.6667 3.5,47C 1.64977,46.3103 0.316435,45.1436 -0.5,43.5C -0.5,39.8333 -0.5,36.1667 -0.5,32.5C 0.28913,32.2172 0.955796,31.7172 1.5,31C 13.999,29.4447 26.1657,30.6114 38,34.5C 40.8062,33.7589 43.4729,32.7589 46,31.5C 47.2559,31.6483 48.4226,31.9816 49.5,32.5 Z"/></g>
<g><path style="opacity:1" fill="#f6f6f6" d="M 3.5,39.5 C 17.5,39.5 31.5,39.5 45.5,39.5C 45.67,40.8221 45.3366,41.9887 44.5,43C 31.1667,43.6667 17.8333,43.6667 4.5,43C 3.66337,41.9887 3.33003,40.8221 3.5,39.5 Z"/></g>
<g><path style="opacity:1" fill="#f8f8f8" d="M -0.5,43.5 C 0.316435,45.1436 1.64977,46.3103 3.5,47C 17.5,47.6667 31.5,47.6667 45.5,47C 47.3502,46.3103 48.6836,45.1436 49.5,43.5C 49.5,45.5 49.5,47.5 49.5,49.5C 32.8333,49.5 16.1667,49.5 -0.5,49.5C -0.5,47.5 -0.5,45.5 -0.5,43.5 Z"/></g>
</svg>
