<?xml version="1.0" standalone="no"?>
<!DOCTYPE svg PUBLIC "-//W3C//DTD SVG 20010904//EN"
 "http://www.w3.org/TR/2001/REC-SVG-20010904/DTD/svg10.dtd">
<svg version="1.0" xmlns="http://www.w3.org/2000/svg"
 width="50.000000pt" height="50.000000pt" viewBox="0 0 50.000000 50.000000"
 preserveAspectRatio="xMidYMid meet">

<g transform="translate(0.000000,50.000000) scale(0.100000,-0.100000)"
fill="#000000" stroke="none">
<path d="M177 464 c-106 -33 -172 -150 -148 -260 43 -191 299 -237 408 -73 32
48 42 136 23 194 -37 111 -168 176 -283 139z m189 -87 c24 -21 28 -32 32 -103
8 -146 -28 -181 -176 -172 -67 5 -78 8 -99 32 -20 24 -23 38 -23 111 0 138 16
153 152 154 77 1 90 -2 114 -22z"/>
<path d="M142 358 c-8 -8 -12 -47 -12 -110 0 -117 1 -118 123 -118 110 0 117
7 117 119 0 120 -1 121 -118 121 -63 0 -102 -4 -110 -12z m203 -18 c3 -6 -1
-13 -10 -16 -19 -8 -30 0 -20 15 8 14 22 14 30 1z m-51 -31 c19 -15 26 -30 26
-55 0 -90 -125 -101 -146 -12 -5 22 0 33 24 58 36 35 60 38 96 9z"/>
<path d="M212 288 c-27 -27 -3 -88 34 -88 18 0 54 36 54 53 0 36 -63 60 -88
35z"/>
</g>
</svg>
