<?xml version="1.0" standalone="no"?>
<!DOCTYPE svg PUBLIC "-//W3C//DTD SVG 20010904//EN"
 "http://www.w3.org/TR/2001/REC-SVG-20010904/DTD/svg10.dtd">
<svg version="1.0" xmlns="http://www.w3.org/2000/svg"
 width="64.000000pt" height="64.000000pt" viewBox="0 0 64.000000 64.000000"
 preserveAspectRatio="xMidYMid meet">

<g transform="translate(0.000000,64.000000) scale(0.100000,-0.100000)"
fill="#000000" stroke="none">
<path d="M357 569 c-11 -6 -26 -12 -34 -13 -16 -3 -43 -66 -43 -102 0 -11 -12
-31 -26 -45 -14 -13 -23 -31 -21 -40 3 -9 -24 -48 -64 -95 -38 -43 -69 -83
-69 -88 0 -11 50 -66 60 -66 4 0 43 31 86 70 46 41 85 68 93 65 8 -3 26 5 40
18 14 13 53 32 86 42 60 18 61 19 78 72 28 81 3 144 -70 182 -27 14 -92 14
-116 0z m121 -35 c37 -26 44 -49 28 -89 -8 -19 -19 -35 -23 -35 -5 0 -35 27
-68 60 -49 50 -57 62 -45 70 23 15 83 12 108 -6z m-83 -95 c57 -58 59 -61 41
-75 -11 -8 -27 -14 -35 -14 -24 0 -91 71 -91 96 0 27 10 54 19 54 4 0 33 -27
66 -61z m-56 -114 c-13 -14 -18 -12 -44 14 -24 26 -26 33 -15 46 12 15 17 13
44 -14 27 -28 29 -32 15 -46z m-62 -11 c4 -13 -133 -148 -140 -137 -7 11 115
153 127 150 6 -2 11 -8 13 -13z"/>
<path d="M314 229 c-3 -6 -1 -16 5 -22 6 -6 11 -49 11 -104 0 -76 3 -93 15
-93 12 0 15 17 15 98 -1 65 -5 103 -14 115 -15 20 -22 21 -32 6z"/>
</g>
</svg>
