<?xml version="1.0" encoding="UTF-8"?>
<!DOCTYPE svg PUBLIC "-//W3C//DTD SVG 1.1//EN" "http://www.w3.org/Graphics/SVG/1.1/DTD/svg11.dtd">
<svg xmlns="http://www.w3.org/2000/svg" version="1.1" width="50px" height="50px" style="shape-rendering:geometricPrecision; text-rendering:geometricPrecision; image-rendering:optimizeQuality; fill-rule:evenodd; clip-rule:evenodd" xmlns:xlink="http://www.w3.org/1999/xlink">
<g><path style="opacity:1" fill="#f9f9f9" d="M -0.5,-0.5 C 16.1667,-0.5 32.8333,-0.5 49.5,-0.5C 49.5,16.1667 49.5,32.8333 49.5,49.5C 32.8333,49.5 16.1667,49.5 -0.5,49.5C -0.5,32.8333 -0.5,16.1667 -0.5,-0.5 Z"/></g>
<g><path style="opacity:1" fill="#121212" d="M 1.5,1.5 C 4.57186,1.18259 7.57186,1.51592 10.5,2.5C 11.1667,4.16667 11.8333,5.83333 12.5,7.5C 24.1477,8.49891 35.8143,8.83225 47.5,8.5C 46.7391,15.4703 45.4058,22.3037 43.5,29C 34.5405,30.7449 25.5405,32.2449 16.5,33.5C 25.4596,33.8969 34.4596,33.8969 43.5,33.5C 43.5,34.5 43.5,35.5 43.5,36.5C 34.1637,37.0007 24.8304,37.1674 15.5,37C 13.1702,34.8269 12.8368,32.3269 14.5,29.5C 12.2319,21.8624 10.0653,14.1958 8,6.5C 5.95917,5.57692 3.7925,5.24358 1.5,5.5C 1.5,4.16667 1.5,2.83333 1.5,1.5 Z"/></g>
<g><path style="opacity:1" fill="#f7f7f7" d="M 13.5,13.5 C 16.6248,12.5206 19.9581,12.1872 23.5,12.5C 23.5,14.5 23.5,16.5 23.5,18.5C 20.7531,18.8134 18.0865,18.48 15.5,17.5C 15.0057,15.9745 14.339,14.6412 13.5,13.5 Z"/></g>
<g><path style="opacity:1" fill="#f0f0f0" d="M 32.5,12.5 C 32.5,14.5 32.5,16.5 32.5,18.5C 30.1667,18.5 27.8333,18.5 25.5,18.5C 24.5386,16.7354 24.2053,14.7354 24.5,12.5C 27.1667,12.5 29.8333,12.5 32.5,12.5 Z"/></g>
<g><path style="opacity:1" fill="#ededed" d="M 34.5,12.5 C 37.5719,12.1826 40.5719,12.5159 43.5,13.5C 42.6906,15.0709 42.3573,16.7376 42.5,18.5C 39.8333,18.5 37.1667,18.5 34.5,18.5C 34.5,16.5 34.5,14.5 34.5,12.5 Z"/></g>
<g><path style="opacity:1" fill="#6f6f6f" d="M 32.5,12.5 C 33.4682,14.6074 33.8016,16.9407 33.5,19.5C 30.6146,19.8064 27.9479,19.4731 25.5,18.5C 27.8333,18.5 30.1667,18.5 32.5,18.5C 32.5,16.5 32.5,14.5 32.5,12.5 Z"/></g>
<g><path style="opacity:1" fill="#ebebeb" d="M 16.5,20.5 C 18.8333,20.5 21.1667,20.5 23.5,20.5C 23.5,23.1667 23.5,25.8333 23.5,28.5C 21.5328,28.7394 19.6995,28.4061 18,27.5C 17.338,25.1873 16.838,22.854 16.5,20.5 Z"/></g>
<g><path style="opacity:1" fill="#939393" d="M 29.5,27.5 C 30.209,26.596 31.209,26.2627 32.5,26.5C 32.5,24.8333 32.5,23.1667 32.5,21.5C 30.1667,21.5 27.8333,21.5 25.5,21.5C 25.0254,24.0821 25.6921,26.0821 27.5,27.5C 25.6921,26.0821 25.0254,24.0821 25.5,21.5C 27.8333,21.5 30.1667,21.5 32.5,21.5C 32.5,23.1667 32.5,24.8333 32.5,26.5C 31.209,26.2627 30.209,26.596 29.5,27.5 Z"/></g>
<g><path style="opacity:1" fill="#fefefe" d="M 29.5,27.5 C 28.8333,27.5 28.1667,27.5 27.5,27.5C 25.6921,26.0821 25.0254,24.0821 25.5,21.5C 27.8333,21.5 30.1667,21.5 32.5,21.5C 32.5,23.1667 32.5,24.8333 32.5,26.5C 31.209,26.2627 30.209,26.596 29.5,27.5 Z"/></g>
<g><path style="opacity:1" fill="#dadada" d="M 34.5,20.5 C 36.8333,20.5 39.1667,20.5 41.5,20.5C 42.2647,25.9064 39.9313,27.9064 34.5,26.5C 34.5,24.5 34.5,22.5 34.5,20.5 Z"/></g>
<g><path style="opacity:1" fill="#191919" d="M 14.5,39.5 C 20.4877,39.664 21.821,42.164 18.5,47C 12.4034,47.1475 11.0701,44.6475 14.5,39.5 Z"/></g>
<g><path style="opacity:1" fill="#121212" d="M 37.5,39.5 C 42.2624,40.0925 43.5957,42.5925 41.5,47C 35.2016,47.4954 33.8682,44.9954 37.5,39.5 Z"/></g>
</svg>
