<?xml version="1.0" standalone="no"?>
<!DOCTYPE svg PUBLIC "-//W3C//DTD SVG 20010904//EN"
 "http://www.w3.org/TR/2001/REC-SVG-20010904/DTD/svg10.dtd">
<svg version="1.0" xmlns="http://www.w3.org/2000/svg"
 width="50.000000pt" height="50.000000pt" viewBox="0 0 50.000000 50.000000"
 preserveAspectRatio="xMidYMid meet">

<g transform="translate(0.000000,50.000000) scale(0.100000,-0.100000)"
fill="#000000" stroke="none">
<path d="M191 468 c-31 -7 -58 -24 -96 -61 -43 -43 -55 -61 -64 -104 -30 -146
72 -273 219 -273 128 0 219 93 220 223 0 146 -133 249 -279 215z m164 -130
c13 0 21 -7 22 -19 1 -11 -2 -19 -8 -19 -5 0 -9 -12 -9 -26 0 -44 -40 -102
-85 -124 -47 -23 -72 -25 -112 -9 l-28 12 35 9 c29 8 32 11 18 19 -23 13 -45
66 -47 113 l-2 38 33 -20 c58 -35 76 -37 84 -7 8 31 32 47 59 39 11 -4 29 -6
40 -6z"/>
</g>
</svg>
